<svg xmlns="http://www.w3.org/2000/svg" width="167.756" height="44.2" viewBox="0 0 167.756 44.2">
  <g id="logo" transform="translate(0 -24.68)">
    <g id="Group_176" data-name="Group 176">
      <path id="Path_1" data-name="Path 1" d="M13.43,41.223V76.431H0V37.221c2.149,1.37,5-.578,7.313-.463,2.706.134,3.754,2.229,5.48,3.908a6.425,6.425,0,0,0,.638.557" transform="translate(0 -12.073)" fill="#55efc4"/>
      <path id="Path_2" data-name="Path 2" d="M40.7,52.354V79.348H27.27V47.942a1.408,1.408,0,0,0,.651.275V48.2a.918.918,0,0,0,.309.007v.014c.02,0,.04-.007.06-.007a1.551,1.551,0,0,0,.974-.8,5.755,5.755,0,0,1,.913-1.208,2.222,2.222,0,0,1,2.807-.135.148.148,0,0,0,.02.2,5.142,5.142,0,0,1,.591.672,18.634,18.634,0,0,1,1.793,3.606,6.1,6.1,0,0,0,2.182,2.579c.994.672,1.94.236,2.793-.49.121-.1.228-.195.336-.289" transform="translate(-8.958 -14.991)" fill="#b0aaff"/>
      <path id="Path_3" data-name="Path 3" d="M67.96,41.182V77.867H54.53V46.319c.316-.275.631-.551.96-.853a16.1,16.1,0,0,1,4.365-2.881,16.425,16.425,0,0,1,8.105-1.4" transform="translate(-17.912 -13.509)" fill="#ffeaa7"/>
      <g id="Group_171" data-name="Group 171" transform="translate(-32.244)">
        <path id="Path_6" data-name="Path 6" d="M158.546,52.227v2.037h-1.976v7.285h-2.615V54.263h-1.7V52.227h1.7V48.833h2.615v3.393Z" transform="translate(-50.015 -16.041)" fill="#111"/>
        <path id="Path_7" data-name="Path 7" d="M170.953,53.83l-.6,2.495a2.717,2.717,0,0,0-1.337-.339c-1.338,0-2.256,1.258-2.256,3.912v3.194h-2.615V53.769h2.6v2a2.861,2.861,0,0,1,2.734-2.235,3.317,3.317,0,0,1,1.477.3" transform="translate(-53.92 -17.584)" fill="#111"/>
        <path id="Path_8" data-name="Path 8" d="M182.671,53.886h2.616v9.322h-2.616V61.691a3.018,3.018,0,0,1-2.794,1.757c-2.435,0-3.712-1.636-3.693-4.431V53.886H178.8v4.991c0,1.457.878,2.135,1.776,2.135a2,2,0,0,0,2.1-2.2Z" transform="translate(-57.874 -17.701)" fill="#111"/>
        <path id="Path_9" data-name="Path 9" d="M200.392,46.337h2.616V60.728h-2.616V59.57a3.727,3.727,0,0,1-2.994,1.4,4.912,4.912,0,0,1,0-9.8,3.655,3.655,0,0,1,2.994,1.377Zm-.079,9.72A2.457,2.457,0,0,0,197.9,53.6a2.431,2.431,0,0,0-2.415,2.454,2.416,2.416,0,1,0,4.83,0" transform="translate(-63.342 -15.221)" fill="#111"/>
        <path id="Path_10" data-name="Path 10" d="M221.011,57.982v5.11H218.4v-4.97c0-1.457-.878-2.115-1.776-2.115a1.984,1.984,0,0,0-2.1,2.2v4.89h-2.615V53.77h2.615v1.577a3.013,3.013,0,0,1,2.794-1.816c2.436,0,3.713,1.657,3.693,4.451" transform="translate(-69.609 -17.584)" fill="#111"/>
        <path id="Path_11" data-name="Path 11" d="M228.344,58.441a5.012,5.012,0,1,1,5.01,4.89,4.877,4.877,0,0,1-5.01-4.89m7.366,0a2.358,2.358,0,1,0-2.356,2.455,2.364,2.364,0,0,0,2.356-2.455" transform="translate(-75.008 -17.584)" fill="#111"/>
        <path id="Path_12" data-name="Path 12" d="M245.463,57.9h2.456a1.22,1.22,0,0,0,1.377,1.117c.759,0,1.338-.379,1.338-.918,0-.4-.32-.6-1.019-.779l-1.238-.3c-2.395-.638-2.714-1.976-2.714-2.954,0-1.437,1.5-2.793,3.653-2.793,1.7,0,3.693.818,3.672,3.033h-2.495a1.012,1.012,0,0,0-1.138-.978c-.6,0-1.078.34-1.078.819,0,.439.4.659.918.8l1.537.4c2.236.6,2.515,2,2.515,2.755,0,1.956-2,2.973-3.912,2.973-1.956,0-3.852-1.117-3.873-3.173m2.974-7.925,1.876-3.314h2.655l-2.595,3.314Z" transform="translate(-80.631 -15.328)" fill="#111"/>
        <path id="Path_13" data-name="Path 13" d="M259.254,58.4a4.893,4.893,0,0,1,5.11-4.87,4.719,4.719,0,0,1,3.932,2L266.32,56.9a2.457,2.457,0,0,0-1.935-.938,2.381,2.381,0,0,0-2.476,2.435,2.418,2.418,0,0,0,2.476,2.5,2.458,2.458,0,0,0,1.935-.939l1.976,1.377a4.72,4.72,0,0,1-3.932,2,4.942,4.942,0,0,1-5.11-4.93" transform="translate(-85.162 -17.584)" fill="#111"/>
        <path id="Path_14" data-name="Path 14" d="M274.976,48.34a1.659,1.659,0,1,1,1.657,1.577,1.624,1.624,0,0,1-1.657-1.577m.359,3.214h2.615v9.322h-2.615Z" transform="translate(-90.326 -15.368)" fill="#111"/>
        <path id="Path_15" data-name="Path 15" d="M160.254,81.829l-.6,2.5a2.712,2.712,0,0,0-1.337-.34c-1.338,0-2.256,1.258-2.256,3.912v3.194h-2.615V81.77h2.6v2a2.862,2.862,0,0,1,2.734-2.235,3.317,3.317,0,0,1,1.477.3" transform="translate(-50.406 -26.782)" fill="#111"/>
        <path id="Path_16" data-name="Path 16" d="M164.385,86.441a5.012,5.012,0,1,1,5.01,4.89,4.877,4.877,0,0,1-5.01-4.89m7.366,0A2.358,2.358,0,1,0,169.4,88.9a2.364,2.364,0,0,0,2.356-2.455" transform="translate(-53.998 -26.782)" fill="#111"/>
        <path id="Path_17" data-name="Path 17" d="M189.8,81.887v2l-4.651,4.891H189.8v2.435h-8.383V89.232l4.551-4.91H181.7V81.887Z" transform="translate(-59.593 -26.899)" fill="#111"/>
        <path id="Path_18" data-name="Path 18" d="M207.509,81.887h2.834l-3.294,9.321h-2.235L202.9,85.16l-1.856,6.048h-2.235l-3.394-9.321h2.834L200,87.576l1.777-5.688h2.2l1.777,5.688Z" transform="translate(-64.191 -26.899)" fill="#111"/>
        <path id="Path_19" data-name="Path 19" d="M218.746,86.441a5.012,5.012,0,1,1,5.01,4.89,4.877,4.877,0,0,1-5.01-4.89m7.366,0a2.358,2.358,0,1,0-2.356,2.455,2.364,2.364,0,0,0,2.356-2.455" transform="translate(-71.855 -26.782)" fill="#111"/>
        <path id="Path_20" data-name="Path 20" d="M233.071,93.446V91.071h1.138c1.038,0,1.477-.859,1.477-1.917v-9.6H238.3v9.56c0,2.735-1.378,4.332-4.012,4.332Zm2.256-17.106A1.625,1.625,0,0,1,237,74.783a1.578,1.578,0,0,1,1.637,1.557A1.594,1.594,0,0,1,237,77.917a1.642,1.642,0,0,1-1.676-1.577" transform="translate(-76.561 -24.565)" fill="#111"/>
        <path id="Path_21" data-name="Path 21" d="M243.918,86.441a5.012,5.012,0,1,1,5.01,4.89,4.877,4.877,0,0,1-5.01-4.89m7.366,0a2.358,2.358,0,1,0-2.356,2.455,2.364,2.364,0,0,0,2.356-2.455" transform="translate(-80.124 -26.782)" fill="#111"/>
        <path id="Path_22" data-name="Path 22" d="M271.975,81.887h2.834l-3.294,9.321H269.28l-1.916-6.048-1.856,6.048h-2.236l-3.394-9.321h2.834l1.757,5.688,1.777-5.688h2.2l1.777,5.688Z" transform="translate(-85.367 -26.899)" fill="#111"/>
        <path id="Path_23" data-name="Path 23" d="M292.981,87.278h-7.006a2.281,2.281,0,0,0,2.4,1.737,3.329,3.329,0,0,0,2.455-1.1l1.517,1.537a5.207,5.207,0,0,1-4.132,1.876,4.9,4.9,0,1,1-.02-9.8,4.662,4.662,0,0,1,4.85,4.751c0,.259-.019.578-.06,1m-2.575-1.7a1.986,1.986,0,0,0-2.156-1.8,2.167,2.167,0,0,0-2.275,1.8Z" transform="translate(-93.041 -26.782)" fill="#111"/>
      </g>
    </g>
  </g>
</svg>
