<svg id="share" xmlns="http://www.w3.org/2000/svg" width="20" height="20" viewBox="0 0 20 20">
  <path id="Path_256" data-name="Path 256" d="M20,10A10,10,0,1,1,10,0,10,10,0,0,1,20,10Zm0,0" fill="#f2f2f2"/>
  <path id="Path_258" data-name="Path 258" d="M111.8,194.52a6.8,6.8,0,0,0-6.8,6.8,6.8,6.8,0,0,1,7.315-4.23Zm0,0" transform="translate(-100.898 -186.922)" fill="#292929"/>
  <path id="Path_259" data-name="Path 259" d="M116.8,114.35l-5-5v5.019a6.8,6.8,0,0,0-6.8,5.11,6.8,6.8,0,0,1,6.8-3.48v3.342Zm0,0" transform="translate(-100.898 -105.083)" fill="#111"/>
</svg>
