<svg width="20" height="20" viewBox="0 0 20 20" fill="none" xmlns="http://www.w3.org/2000/svg">
<path d="M10.902 7.598C9.09852 7.598 7.36891 8.31443 6.09367 9.58967C4.81842 10.8649 4.10199 12.5945 4.10199 14.398C4.66541 12.9712 5.69472 11.7768 7.02271 11.0089C8.35069 10.2409 9.89932 9.9446 11.417 10.168L10.902 7.598Z" fill="#292929"/>
<path d="M15.902 9.267L10.902 4.267V9.286C9.35643 9.23768 7.84055 9.71756 6.60437 10.6465C5.36819 11.5755 4.48554 12.898 4.10199 14.396C4.75659 13.2017 5.75476 12.2314 6.96717 11.6109C8.17959 10.9905 9.55039 10.7484 10.902 10.916V14.258L15.902 9.267Z" fill="#111111"/>
</svg>
